<?xml version="1.0" encoding="utf-8"?>
<!-- Generator: Adobe Illustrator 25.4.1, SVG Export Plug-In . SVG Version: 6.00 Build 0)  -->
<svg version="1.1" id="Layer_1" xmlns="http://www.w3.org/2000/svg" xmlns:xlink="http://www.w3.org/1999/xlink" x="0px" y="0px"
	 viewBox="0 0 719 147.8" style="enable-background:new 0 0 719 147.8;" xml:space="preserve">
<style type="text/css">
	.st0{fill:#1D1E1C;}
</style>
<path class="st0" d="M47,100.8c-6.4,0-10.7-3.8-10.7-9.6V50.9h18.8v-6.8H36.3V20.7L9.6,31.5v9L0,49l11.6,6.4l-2,36.7
	C9,104.3,17.5,112.1,31,112.1c11.7,0,24-8.5,29.2-18.1C56.5,98.2,51.4,100.8,47,100.8z"/>
<path class="st0" d="M85,42.6c4.3,0,6.8,6,6.8,15.4c0,3.8-0.9,6.9-4.9,6.9H76.2C76.6,51.2,80.1,42.6,85,42.6z M97,93.9
	c-12.6,0-20.8-11.2-20.8-26.3v-0.4h37.6v-1.4c0-15.1-11.9-25.5-28.8-25.5c-20.6,0-34.9,16-34.9,38.4c0,19.8,13.7,33.5,33.5,33.5
	c18.1,0,30.9-13.9,32.7-35.7C113,88,107,93.9,97,93.9z"/>
<polygon class="st0" points="154.8,102.1 154.8,10.3 113.2,23.4 127.4,30 127.4,102.1 119,110.6 163.2,110.6 "/>
<path class="st0" d="M218.4,122c5.6,0,7.4,0.8,7.4,3.1c0,5.2-11.3,10.3-26.8,10.5c-14.7,0.3-24.1-3.4-24.1-9.2
	c0-2.7,2.3-4.4,6.8-4.4H218.4z M195.9,89.5c-4.8,0-6.9-7.7-6.9-23.2c0-16.5,2.2-23.7,6.9-23.7c4.7,0,6.6,7.8,6.6,23.7
	C202.5,82.6,200.3,89.5,195.9,89.5z M234.7,44.4h-16c-6.8,0-12.9-4.2-22.8-4.2c-17.8,0-31.3,11.1-31.3,26c0,8.7,4.8,16.1,12.5,20.7
	c-10,7.7-15.5,13.5-15.5,20.8c0,6.1,4,10.7,10.8,12.9v1.2c-8.2,1.7-16.5,5.7-16.5,11.9c0,7.9,12,14.1,28,14.1
	c23.7,0,50.4-17.5,50.4-35.8c0-8.9-6.9-13.3-16.8-13.3h-36.9c-3.4,0-5.5-1.4-5.5-4c0-2,1.4-4.3,3.9-6.6c4.8,2.5,10.5,3.8,16.8,3.8
	c17.8,0,31.1-10.9,31.1-25.5c0-5.7-2-10.9-5.3-15.1h13V44.4z"/>
<path class="st0" d="M267.7,109.9c-8.1,0-11.5-11.2-11.5-34c0-23.4,3.8-33.5,11.5-33.5c7.8,0,11.2,11.1,11.2,33.5
	C278.9,99.8,275.2,109.9,267.7,109.9z M267.7,112.1c21.6,0,38.5-16.4,38.5-36.3c0-19.5-16.9-35.6-38.5-35.6
	c-21.4,0-38.8,16-38.8,35.6C228.8,95.7,246.3,112.1,267.7,112.1z"/>
<path class="st0" d="M355.5,40.2c-7.4,0-14.6,5.7-20.1,14.2V40.2l-33.5,12.9l7,4.6v46.4l-5.2,6.5h37.9l-6.3-6.5v-46
	c1.8-3.3,4.3-5.9,6.4-5.9c4.4,0,4.9,13.8,16,13.8c6.3,0,10.5-5.1,10.5-12.5C368.3,45.7,363,40.2,355.5,40.2z"/>
<path class="st0" d="M397.7,104.1V40.2l-33.5,12.9l7,4.6v46.4l-5.2,6.5h36.9L397.7,104.1z M397.7,10.3h-26.6v24.4h26.6V10.3z"/>
<path class="st0" d="M444.6,100.8c-6.4,0-10.7-3.8-10.7-9.6V50.9h18.8v-6.8H434V20.7l-26.7,10.8v9l-9.6,8.5l11.6,6.4l-2,36.7
	c-0.7,12.2,7.8,20.1,21.4,20.1c11.7,0,24-8.5,29.2-18.1C454.1,98.2,449.1,100.8,444.6,100.8z"/>
<path class="st0" d="M524.7,104.1V60c0-11.7-7.7-19.8-18.8-19.8c-3.8,0-13.2,4.9-24.4,12.9V0l-33.5,12.9l7,5.2v86l-5.2,6.5h36.9
	l-5.2-6.5V55.3c3.5-2,7.2-3.3,9.8-3.3c4,0,6.9,3.8,6.9,9.1v42.8l-5.7,6.5h37.4L524.7,104.1z"/>
<path class="st0" d="M642.7,104.1V60c0-11.7-7.7-19.8-18.8-19.8c-3.8,0-13,4.8-24,12.6c-2.5-7.7-9.1-12.6-17.7-12.6
	c-3.6,0-12.4,4.6-22.9,11.9V40.2l-33.5,12.9l7,5.2v45.7l-5.2,6.5h37.4l-5.7-6.5V54.4c3.1-1.4,6.1-2.3,8.3-2.3c4,0,6.9,3.8,6.9,9v43
	l-5.7,6.5h37.4l-5.2-6.5V60c0-1.8-0.1-3.6-0.5-5.3c3.1-1.6,6.4-2.6,8.9-2.6c4,0,6.9,3.8,6.9,9v43l-5.7,6.5h37.4L642.7,104.1z"/>
<rect x="658.8" y="98.6" class="st0" width="60.2" height="12"/>
</svg>
